<svg xmlns="http://www.w3.org/2000/svg" viewBox="0 0 1000 1000">
  <title>Lucas Logo</title>
  <g id="Layer_1" data-name="Layer 1">
    <g>
      <path d="M796,692.06a26,26,0,0,1-4.82.65c-4.19-.22-7.95,2.12-12.39,1.36-3.75-.64-8-1.06-11.16,3-1,1.24-4.17,1.4-6.15,1-3.43-.65-6.66-2.31-10.07-3.1-1-.23-2.28,1.06-2.76,1.31a34.86,34.86,0,0,0-5.3-1.54c-3.59-.43-7.18-.6-8.71-4.8-.17-.47-1.31-1.09-1.61-.93-2.85,1.6-4.71-1.35-7-1.45-4-.18-6-3.33-9.1-4.77-5.41-2.51-8.08-8.18-5-11.79,3.89-4.54,3.73-9.74,4.35-14.95.07-.6.06-1.4.42-1.73,2.53-2.26,1.63-5.19,1.93-8,.42-3.85,1.6-7.62,2.45-11.43a10.75,10.75,0,0,0,.51-2.39c-.07-7.41-.34-14.82-.25-22.23,0-3.32,1-6.62,1.08-9.94,0-3.1-.62-6.21-.85-9.33-.09-1.29.17-2.61.21-3.91.12-4,.25-8,.31-12,.11-6.75-.08-13.51.31-20.24.38-6.44,1-12.77,0-19.27-.82-5.25.15-10.77-.53-16.07a15.68,15.68,0,0,1,1.62-8.82c.63-1.44.33-3.46,0-5.13-1.17-6.1,2.67-11.18,3.25-16.84s.14-11.57.18-17.36c0-1.29.33-2.6.22-3.88-.26-2.83-.77-5.64-1-8.47-.1-1.12-.23-2.78.41-3.35,4.17-3.7,3.49-8.71,2.35-12.81-1.07-3.86-.19-7.11.24-10.62.35-2.85,1.31-5.71,1.16-8.52a44.25,44.25,0,0,1,1.8-14.26c.28-1-.37-2.3-.39-3.46,0-3.35.07-6.7,0-10,0-1.11-.55-2.2-.64-3.32-.32-3.88-.8-7.78-.73-11.66.06-3.36,1-6.71,1.16-10.08.23-5.75,1.24-11.81-.15-17.2-1.3-5.07,1-9.75-.08-14.13-1.22-5.15,1.75-9.39,1.16-14.16q-.61-5-.8-10.13a53.46,53.46,0,0,1,.24-8.86c.25-2,2.07-3.92,1.86-5.72-.67-5.82-2-11.56-3-17.34-.34-2-1-4.34-.36-6.14,2.36-7-.5-13.95.51-20.87.14-.95-.36-2.28.12-2.87,3.56-4.32.22-7.16-1.9-10.37a6.48,6.48,0,0,1-.59-3.09,77.06,77.06,0,0,1-.29-9,18.83,18.83,0,0,1,1.57-6c.94-2.26,1.9-4.74,3.57-6.41a96.52,96.52,0,0,1,10-8.23c.53-.41,1.63-.1,2.46-.06.57,0,1.5.42,1.64.21,1.8-2.62,4.9-1.63,7.17-2.71,3.71-1.75,7.23-1.47,11.11-.81,3.45.6,7.07.14,10.62.21,1.95,0,3.9.22,6.29.36.19.43,1.08,1.46.87,2.11-1.51,4.48,2.2,5.56,4.58,7.69,2.65,2.36,5,5.06,7.45,7.62.93,1,1.85,1.93,2.73,2.94,2,2.34,5.1,3.65,5.59,7.56.27,2.17,2.39,4.64,4.36,6,3,2,3.83,4.95,5.08,7.76a84.87,84.87,0,0,1,4.24,11.36,11.18,11.18,0,0,1-.32,6c-1.49,4.76.91,8.92,1.59,13.35a44.4,44.4,0,0,1,.66,5.38c.1,3.34,0,6.68,0,10,0,.83,0,2-.45,2.43-3.21,2.83-1.13,5.54-.18,8.46,1.81,5.57,3.14,10.78,1.16,17.19-1.7,5.45.31,12,.51,18.1.14,4.11,0,8.22-.06,12.33a12.72,12.72,0,0,0,0,2.47c1.1,5.38,2.26,10.75,3.38,16.13a1.83,1.83,0,0,1,0,1.09c-3.08,6.13-.93,12,.68,18,.33,1.24-.51,2.75-.49,4.13,0,2.27.43,4.53.47,6.8.09,6.06-.33,12.15.21,18.17.6,6.62-3.12,11.78-4.52,17.56s-7,10.17-6,16.76c.08.51-1.53,1.5-2.5,1.92-3.3,1.44-3.92,5.08-6.24,7.28-1.67,1.59-3.57,2.94-5.26,4.5a36,36,0,0,0-2.93,3.35c-.46.55-.77,1.58-1.28,1.67-5.44,1-7.51,5.7-10.61,9.3-.48.56-1.5.69-2.29.93-2.3.69-5.12.21-6.26,3.34-.23.63-2,.61-2.93,1.09a12.12,12.12,0,0,0-2,1.66A16.45,16.45,0,0,0,773.7,492c2.43,2,5.28,2.1,8.31,2.47,2.33.28,4.34,2.9,6.6,4.32a37.52,37.52,0,0,0,8,3.94c1.56,1.49,2,3.67,5.27,4.25,2.45.43,4.47,3.74,6.54,5.91,1.56,1.64,3.75,3.34,4.14,5.32.93,4.66,5.14,7.19,6.53,11.51.58,1.8,3.08,3,3.69,4.77,1,2.92,2.86,5.89,1.19,9.27a3,3,0,0,0,0,2.5c2.39,3.63,2.15,7.45,1.8,11.58-.25,2.84,1.58,5.8,1.64,8.72.07,3.49-.78,7-1.21,10.49a6.4,6.4,0,0,0,0,1.45c.43,4.85,2.37,10.2,1,14.45-2.13,6.5,2.6,11.28,2.15,17-.19,2.4-.84,4.77-1.12,7.16s-1,4.81-.35,6.9c1.09,3.68,1.49,6.82.06,10.72-1.21,3.27-.48,7.32-.35,11a22.39,22.39,0,0,1-1.74,9.3c-1.93,5.06-6.9,8.3-7.45,14.06-.13,1.34-2.23,2.64-3.62,3.7-1.9,1.44-4.07,2.52-6,4-.78.61-1.69,1.89-1.55,2.7,1.08,6.61-3.41,9.07-8.15,11.44-1.06.53-2,1.24-3,1.87Zm-54.29-428c.69,1.95,1.28,3.46,1.76,5,.42,1.35.31,3.11,1.15,4.05,3,3.3,2.27,6.8,1.47,10.58a12.28,12.28,0,0,0,.35,5.54c1.59,6,3.07,12,2,18.16-1.89,11.27-5.87,22.27-3.68,34,1,5.26,1.6,10.6,2.2,15.92a12.5,12.5,0,0,1-.68,4.13c-.67,2.76-2.42,5.67-2,8.21,1.55,8.68,1,17.3.65,26-.09,2.2.72,4.44,1.08,6.66.05.32,0,.87-.22,1-2.66,1.71-1.1,4.06-1,6.18.22,4.37.56,8.73.67,13.1a32.14,32.14,0,0,1-.57,5.86c-1,5.86-2.31,11.68-3,17.57-.63,5.69-.38,11.47-.9,17.18-.32,3.53,1.82,7.17-.62,10.6a9.45,9.45,0,0,0-1.59,3.56,25.77,25.77,0,0,0-.15,4.49c1.11,0,2.22,0,3.34,0s2.54-.23,3.58.21c4.72,2,7,1.9,10.05-1.88,2.2-2.69,4.39-3.58,6.58-2.5,1.88-.82,3.06-1.82,4.1-1.69,2.86.34,4.17-1.25,5.44-3.32,1-1.62,2.4-4.51,3.35-4.41,4.5.51,5-4.58,8.49-5.37,1.55-.35,3.6-1.48,4.12-2.78,1.53-3.82,3.7-6.47,7.94-7.07a1.3,1.3,0,0,0,.81-.67c1.35-2.75,2.56-5.58,4-8.28,1.71-3.26,3.61-6.42,5.42-9.63a62.2,62.2,0,0,0,2.6-6.56,87.93,87.93,0,0,0,2.86-8.72c1.29-5.55-2.66-11.16.05-16.76a1.23,1.23,0,0,0-.08-.72c-1.21-4-2.73-7.89-3.55-11.94-.58-2.87-.93-6.13-.14-8.86,1.31-4.55,1.18-8.49-1.53-12.42a5,5,0,0,1-.63-3.34c.32-2.23,1.63-4.47,1.41-6.58-.66-6.19-1.91-12.22-1.46-18.6.58-8.18,1.23-16.55-2.5-24.39a4.56,4.56,0,0,1-.23-2.85c.7-2.77,1.53-5.51,2.45-8.21,1.47-4.29,1.73-8.37-1.28-12.21a4.6,4.6,0,0,1-.41-2.4c-.08-1.8.09-3.62-.13-5.39-.65-5-1.24-10-2.25-15-.7-3.39.35-7.87-3.75-9.6-3-1.29-2.76-3.64-2.38-5.56.74-3.74-1.43-6.23-3.61-8a65.64,65.64,0,0,1-12.89-13.59c-2.63-3.77-6.06-5.91-10.87-5.42-3,.29-6,.34-8.92.5-1.83.73-1.69,4.68-5.41,3.41-3.49-1.2-5.32,1-6.33,3.58s-2.29,5.83-1.61,8.28c2,7.31-3.94,13.18-2.94,20.15C742.46,263.65,741.65,264.09,741.69,264.06Zm-9.93,407.18a31.09,31.09,0,0,0,3.13,3.54,3.58,3.58,0,0,0,2.59.74c6.09-1.13,11.44.91,16.85,3.34,2.11.94,5.6,2,6.89,1,3.66-2.86,7.95-1.05,11.53-2.64a15.54,15.54,0,0,1,9.82-.83c1.48.29,3.31-1.12,5-1.78.54-.21,1-.52,1.58-.74,4-1.69,8.28-3.44,10.26-7.51a27.34,27.34,0,0,1,7-9.5c4.2-3.61,5.85-9.45,6.37-15.12a105.63,105.63,0,0,0,.13-11.94c-.22-9.87-.53-19.73-.8-29.6,0-.71,0-1.42,0-2.14,0-2.67.07-5.34,0-8-.15-3.77-1.06-7.62-.53-11.28,1-7.12,2.21-14-1.16-20.94a23.79,23.79,0,0,1-1.79-8,27.61,27.61,0,0,0-5.26-14.28c-2.48-3.31-4.53-7-7.2-10.09a34.3,34.3,0,0,0-6.8-5.49c-1.41-1-3.26-1.3-4.72-2.22-4-2.54-7.38-6.31-12.63-6.61-2.63-.15-5.67.1-7.78-1.12a7.45,7.45,0,0,0-8.05,0c-6.81-2.34-12.93-4.19-19.56.95,0,5.52,0,11.78,0,18,0,1.83.34,3.66.33,5.5,0,4.19-.19,8.37-.26,12.56,0,2.79.63,5.79-.17,8.34-2.24,7.21.39,14.37-.38,21.52a2.28,2.28,0,0,0,.47,1.35c2.59,4,1.77,8.08.74,12.36-1.2,5-3.16,10.36-2.39,15.18.92,5.72.15,11.21.31,16.79,0,1.7-.9,3.41-1.09,5.14-.39,3.7-.62,7.42-.84,11.14-.12,2.11-.05,4.22-.13,6.33-.05,1.17-.35,2.34-.38,3.51C732.6,656.29,735.12,664.06,731.76,671.24Z" style="fill: #4c4c4c"/>
      <path d="M253,361.31c-.29-1.18-.62-2.37-.86-3.58-.8-4-1.56-8.05-2.32-12.08-.24-1.3-1-2.84-.52-3.87,1.4-3.36-.65-5.59-1.79-8.32-.86-2.07-.29-4.7-.72-7-.69-3.73-2-7.38-2.42-11.13a14.07,14.07,0,0,1,1.18-7.67c1.5-2.86.49-5-.86-7-1.53-2.29-1.51-4.61-1.42-7.13.13-4.11,1.53-9.23-.37-12.08-2.43-3.65-.45-6.93-1.38-10.31-1.19-4.36.38-9.44.53-14.22a48.23,48.23,0,0,0-.39-10c-.64-3.56-1.71-7,.85-10.15,1.44-1.78.7-3.37.25-5.32a30.94,30.94,0,0,1-.81-10.12c.16-1.41,2.69-3.61,4.12-3.59a5.14,5.14,0,0,1,4.94,5.7,13.68,13.68,0,0,0,1.8,8.73A18.75,18.75,0,0,1,255,243c-.34,4.47,1.17,9.05,1.4,13.6.18,3.47-.62,7-.53,10.47s-.43,7.78,1.41,9.93c3.44,4,.67,7.66,1.14,11.38.39,3.11,1.26,6.16,1.61,9.26.29,2.52-.06,5.1.18,7.63.34,3.61,1.2,7.19,1.38,10.8.11,2-1,4.09-1,6.16a34.86,34.86,0,0,0,.48,9c.77,3.34,1.83,6.88,3.78,9.61,1.53,2.16,1.67,4.1,1.71,6.37,0,1.65.15,3.3.26,5.81-2.08,3-2.1,7.13-.78,11.3,1.42,4.48-1.2,8.33-1.58,12.52-.56,6.22-1,12.51-2.39,18.55-.63,2.67-1.81,5.18-1.77,8.08,0,3.7.13,7.31-1.25,11.07-.8,2.2.28,6.14,1.95,8,3.71,4.08,1.29,8,.71,11.92-.36,2.39-.85,4.33,0,6.88A35,35,0,0,1,263.1,452c0,6.51-.37,13-.56,19.54,0,.7-.09,1.75.32,2.07,4.66,3.72,1.26,7.91.9,12a25.09,25.09,0,0,0,.63,5.33c.46,3.25.93,6.51,1.4,9.76.2,1.38,0,2.92.64,4.1,2.34,4.67,2.53,9.7,2.86,14.72.1,1.45,1,3-1.48,3.83-.57.2-.59,3.65,0,5.29.89,2.46.49,4.48.13,7-1.05,7.4-1.13,14.94-1.43,22.42,0,.94.95,1.9,1.41,2.87,1.94,4.12,4.5,7.87,2.2,13-1.17,2.63-.29,6.18-.33,9.31a16.66,16.66,0,0,0,.06,3.16c.23,1.35.27,3.18,1.14,3.92,4,3.4,8,7.18,12.59,9.49,4.19,2.1,9.21,2.57,13.91,3.53.9.19,2.08-.51,3-1,4-2.08,8.12-4.06,12-6.45a27.05,27.05,0,0,0,5.64-5.17c1.74-2,2.87-4.57,4.77-6.35,5.11-4.79,3.28-11.38,4.84-17.08a26.76,26.76,0,0,0,.54-4.22c.43-3.92,1.24-7.85,1.17-11.76-.12-6.48.9-12.86,1.08-19.29.2-7.26.15-14.55-.07-21.81-.16-5.33-1.25-10.66-1.06-16,.16-4.73,1.85-9.39,2.23-14.14.37-4.51-.32-9.1-.12-13.64.19-4.24.94-8.47,1.45-12.7.22-1.78.48-3.56.69-5.34.15-1.31.25-2.62.37-3.94q.44-4.74.88-9.5c.1-1.08-.07-2.32.4-3.21a14.61,14.61,0,0,0,0-13.81c-1.78-3.3-.69-6.22-.64-8.95.06-3,.33-5.8-.26-8.9-.88-4.67-.81-9.54-.95-14.34-.07-2.73.53-5.48.36-8.2-.33-5.25-1.13-10.47-1.46-15.72-.18-2.74.3-5.53.33-8.3,0-4.28.13-8.58-.11-12.85s-1-8.49-1.25-12.75c-.41-5.9-.54-11.82-1-17.72-.1-1.45-1-2.84-1.25-4.3-2-10.06-.45-20.22-.83-30.33-.22-5.72-.54-11.45-.55-17.17,0-4.64.92-9.33.43-13.89-.42-4-2.25-7.77-3.18-10.74.24-2.6,0-4.71.71-6.45a10,10,0,0,1,3.58-4.55c2-1.25,4.47-1.67,6.73-2.5,4.08-1.5,7.16.06,8.59,4,.82,2.3,2.33,4.35,3.1,6.66.35,1,.05,3.17-.62,3.52-2.78,1.41-2.48,3.72-2.65,6.14-.33,4.65-1.5,9.32-1.16,13.9.18,2.49-.14,5.2,1.36,8,1.35,2.52,0,6.58-.45,9.92-.23,1.69-1.5,3.26-1.65,5-.59,6.52-.52,12.91,1.93,19.29,1.37,3.59,1.11,7.83,1.36,11.79.11,1.64-.5,3.32-.52,5-.1,5.5-.83,11.15.17,16.46.69,3.64.36,7.31,1.35,11.06,1.48,5.6,2.35,12-.64,18-.64,1.28,0,3.3.31,4.94.73,4.36,2.26,8.71,2.19,13-.08,4.55,1.16,8.65,1.92,13a13.57,13.57,0,0,1-1.39,7.58c-1.23,2.63-1.46,4.58.56,6.8a4.81,4.81,0,0,1,1.19,3.22c-.28,4-1,7.89-1.24,11.85a15.34,15.34,0,0,0,.83,6.91c1.95,4.26,1.22,8.09,0,12.36-1.1,4-.84,8.41-1.42,12.6-.31,2.25-1.37,4.4-1.69,6.64-.76,5.23-2.35,10.53.47,15.67a1.8,1.8,0,0,1,.13,1.08c-.72,4.15-1.51,8.3-2.15,12.46a14.9,14.9,0,0,0,.22,3.51c.14,1.43.94,3.19.39,4.23-2.58,4.8.1,9.4,0,14.07-.05,4-.93,7.92-.94,11.88,0,3.68.65,7.37,1.13,12.28-.4,2.89-1.26,7.14-1.54,11.44-.46,6.85-.48,13.74-.78,20.61-.28,6.24-2,12.26-3,18.37-.87,5.57-3.45,9.44-7.31,13-1.07,1-1.35,2.78-2.12,4.13a9.41,9.41,0,0,1-2.1,2.81c-2.48,1.94-5.09,3.71-7.68,5.49-2.21,1.52-4.41,4.08-6.71,4.2-4.17.21-6.32,3.84-9.64,4.55-5.22,1.12-10.82,1.94-16,1.22-6.1-.84-12.11-3.1-17.87-5.46-3.61-1.48-6.68-4.27-10-6.48a3.33,3.33,0,0,0-.91-.58c-4.94-1.28-6-5.37-7.49-9.51-.82-2.32-2.87-4.2-4.29-6.32a3,3,0,0,1-.68-2c1.17-4-.07-8.82,3.66-11.15a66.09,66.09,0,0,0-.05-7.77,49.19,49.19,0,0,0-2-9.59c-.78-2.3-1-3.75.37-6.21,2.34-4.34,6.14-8.94,2.08-14.56-.67-.92.06-3,.37-4.45.52-2.56,1.45-5.06,1.76-7.64.17-1.39-.73-2.88-.87-4.35-.45-4.6-5.08-8.61-1.94-13.75a1.81,1.81,0,0,0-.08-1.73c-3.3-2.88-1.91-6.57-1.54-9.88.78-7.07.76-13.93-2.05-20.66a12.54,12.54,0,0,1,.28-9.56,4.44,4.44,0,0,0,.55-1.71c-.35-5.55,1-11.07-1.69-16.65-1.5-3.15-.49-7.5-.59-11.3a8.72,8.72,0,0,0-.05-2.51c-2-5.25-1.06-10.51-.66-15.87.27-3.69-1.18-7.47-1.18-11.21a84.55,84.55,0,0,1,1.25-12.15c.43-3.08,1.18-6.13,1.76-9.19.9-4.73,1.88-9.45,2.63-14.2.31-2-.15-4.21.24-6.22C251.16,364.59,252.22,363.07,253,361.31Z" style="fill: #4c4c4c"/>
      <path d="M462.65,206.12c5.28-1.3,10-2.48,14.74-3.59a3.47,3.47,0,0,1,1.74.26c2.53.78,4.46,2.9,7.9,1.42,1.49-.65,4.52,2.2,6.83,3.49,1.21.68,2.4,1.41,3.57,2.11,1.57,2.52,3.45,5.14,4.9,8,2.48,4.86,4.67,9.88,7,14.81,2.93,6.1,2.89,12.76,3.51,19.25.52,5.46.42,11,.58,16.48.1,3.23-1.88,5.66-4.63,5.22-1.82-.29-4.07-3.13-4.61-5.22-1.28-5-1.67-10.28-2.42-15.44a5.63,5.63,0,0,0-.18-1.44c-3-6.63-5.78-13.35-9.08-19.82-1.47-2.88-4-5.23-6-7.83-.94-1.21-1.84-2.45-3.19-4.26-2.47.41-5.51.93-8.55,1.39a3,3,0,0,1-1.73-.12c-2.36-1.28-4.41-.63-6.2,1-1.16,1.07-2,1.8-3.59.49-.47-.39-2.06.26-3,.76-1.1.62-2,2.32-3,2.28-4.79-.16-5.43,3.54-6.81,6.66a25.24,25.24,0,0,1-2.67,5.26c-1.59,2.07-2.39,3.88-.62,5.41-2.38,6.67-5.44,12.68-2.21,19.56a5.67,5.67,0,0,1,.34,2.84c-.69,6.55-1.88,13.08-2.07,19.64-.17,6.06.91,12.14,1.05,18.22.14,5.76-.32,11.54-.29,17.3,0,1.52.82,3,1.13,4.54s.61,2.75.85,4.14a3.11,3.11,0,0,1,0,1.76c-1.77,3.74-.79,7.49-.18,11.24.06.34.18.82,0,1-3.34,4.05-1.33,8.87-2,13.3-.32,2.21-1.16,4.37-1.25,6.57a52.62,52.62,0,0,0,.64,7c.16,1.78.18,3.57.43,5.33s.76,3.5,1.11,5.25c.19.92.7,2,.39,2.77-1.35,3.13-3,6.15-4.44,9.23-.29.61-.68,1.54-.42,2,3.42,5.84.55,11.79.47,17.69-.05,3.84.4,7.69.54,11.54a4.32,4.32,0,0,1-.54,2.54c-2.32,3.13-1.78,6.27-.88,9.77.84,3.25.74,6.74,1,10.13.06.72,0,1.46,0,2.19.33,3.89,1.28,7.84.87,11.64a22.11,22.11,0,0,0,2,12.58c2.11,4.33-.56,8.63-.77,13-.09,1.82-.46,3.61-.54,5.43a53.63,53.63,0,0,1-2,13.23c-1.68,5.6-1,12-1,18,0,4.35-1.3,8.85,1.19,13.07.48.81-.14,2.33-.39,3.49-.15.7-.9,1.43-.77,2,1.39,6-1.8,11.5-1.64,17.37.11,4.08-.95,8.22-.6,12.25.52,5.76,2,11.43,2.79,17.18.61,4.37.79,8.79,1.25,13.18a3.94,3.94,0,0,0,.87,2.35c1.41,1.36,3.08,2.27,1.55,4.81-.41.69,1.19,2.59,1.88,3.93a57.25,57.25,0,0,1,3.58,7c2,5.62,6.13,9.12,10.86,12.36a32.06,32.06,0,0,0,11.82,5.2c2.24.47,4.21,2.1,6.4,2.93,2.56,1,5.23,1.64,7.84,2.45l-.4-1.19c2-1.58,3.94-3.31,6.09-4.68,1.36-.87,1.73-2.42,2.43-3.17,2.88-3.11.6-8.85,5.86-10.72,1-.35,1.23-3.42,1.44-5.27.54-4.8,1.15-9.61,1.21-14.43s.59-9.7-1.9-14.2a4.46,4.46,0,0,1-.62-3c1.07-3.45,0-6.19-2-9a12.53,12.53,0,0,1-1.71-10.86,68,68,0,0,0,1.13-7.71,14.86,14.86,0,0,0,1.58-.45c9.16-3.75,9.16-3.75,14.86,4.22a2.42,2.42,0,0,1,.54.92,116.4,116.4,0,0,1,1.33,26.57c-.18,2.36.6,4.79.95,7.2a51.23,51.23,0,0,1,1,6.7c.07,5.44-.12,10.89-.22,16.33,0,.58.12,1.49-.19,1.71-3.5,2.44-2.79,6-2.9,9.5,0,1.17-1.21,2.34-2,3.43-2.5,3.54-5.67,6.76-7.47,10.62-3.29,7.07-7.21,13-15.5,14.56-1.73.32-3.51,1-5.2.79-5.52-.54-10.14-3.27-14.54-6.5a17.81,17.81,0,0,0-4.67-2.18c-2.4-.85-4.85-1.59-7.33-2.21-3.25-.82-6.86-.86-9.75-2.34-4-2-7.43-5.07-11-7.78a2.24,2.24,0,0,1-.6-2c1.66-4.44-1.47-7.57-3.12-11s-3.28-6.08-3.1-10c.1-2.11-2.49-4.21-3.21-6.51-.9-2.93-2.27-6.44-1.42-9,1.88-5.76-1.44-10-2.78-14.79-.38-1.36.13-2.95.11-4.43,0-3.49-.12-7-.26-10.46,0-.76-.67-1.57-.53-2.25,1-5,2.64-9.94,3.1-15,.43-4.7-.46-9.5-.53-14.26-.05-3,.48-5.95.45-8.92,0-2.32-.73-4.64-.71-7s.65-4.77.86-7.17.12-4.68.39-7c.43-3.72,2.2-7.71,1.35-11.07-2.09-8.21,2.7-15.51,2-23.39-.49-5.46-.53-11-1.67-16.35a71.6,71.6,0,0,1-1.14-19.95c.21-3,1.76-5.88,2-8.87.22-3.14-.65-6.34-.66-9.52,0-5.53.33-11.07.38-16.6,0-2-.5-3.93-.57-5.9-.08-2.36,0-4.74.13-7.1.23-3.91.57-7.82.85-11.73.17-2.31-.08-4.75.56-6.91,1.69-5.64-.56-10.85-1.2-16.23a4.83,4.83,0,0,1,.83-2.7c1.38-2.35,2.62-4.6,1.42-7.5-.27-.67.62-1.74.74-2.66.24-1.89,1.19-4.5.32-5.58-2.93-3.64-.79-6.8-.2-10.29.48-2.86.06-5.88-.11-8.82s-.48-6-.78-9c-.48-4.68,1.07-9.76-2.75-13.79a2.23,2.23,0,0,1-.68-1.57c1.08-6.15,2.28-12.29,3.34-18.45.22-1.28.48-3-.14-3.91-4.1-6.2-.26-11.54,1.54-17.12a21.15,21.15,0,0,0,.74-2.7c.74-4.12,1.52-8.23,2.12-12.36a32.26,32.26,0,0,0,.08-5.11,14.2,14.2,0,0,1,4.69-10.77c2.29-2.23,4.07-5,6.09-7.5a5.75,5.75,0,0,1,1.16-1.29,81.67,81.67,0,0,1,8.21-5.15c1.74-.88,3.91-.88,5.83-1.47A9.27,9.27,0,0,0,462.65,206.12Z" style="fill: #4c4c4c"/>
      <path d="M170.63,677.74c-.83-3.09-2.77-5.92.11-8.83a2.32,2.32,0,0,0-.06-2.26c-2.3-1.64-1-3.41-.67-5.36a94.8,94.8,0,0,0,.76-10.4,76.77,76.77,0,0,0,.06-8.58c-.13-1.88-1.14-3.7-1.24-5.58-.16-3.06-.53-6.33.35-9.16.92-3,2.15-5.57.56-8.68a4.74,4.74,0,0,1-.13-3.53c1.91-4.5.12-8.63-.62-13a19.56,19.56,0,0,1,.67-9.86,12.41,12.41,0,0,0-.09-10.18c-1-2.3-.44-5.23-.63-7.87-.16-2.11.24-4.58-.72-6.25-3.11-5.41-1.59-11.14-1.75-16.74-.11-3.66.26-7.34.42-11,0-.35.28-.83.13-1-4.56-5.62-2-12.06-2.12-18.18a6.06,6.06,0,0,0-.59-2.67c-2.27-4.22-1.22-8.5-1.14-13,.14-7.11,3.66-14.1.76-21.35-1-2.41-1.26-5.1,1.6-7.1a4,4,0,0,0,.83-3.68c-2.11-5,.37-10-.27-15s-1.39-9.85-2.07-14.78a16.82,16.82,0,0,1-.18-2.74c.13-4.78.26-9.57.49-14.35.09-2,.67-3.95.6-5.9-.09-2.24-.86-4.44-.95-6.67s.4-4.23.52-6.36q.24-4.31.28-8.62c0-4,.15-8-.11-11.95-.15-2.19-1.1-4.31-1.53-6.49a8.5,8.5,0,0,1,0-3.18c1.3-7.08,1.8-14-2.14-20.58-.28-.46-.43-1.47-.16-1.71,2.57-2.31.06-4.71.27-7a85.62,85.62,0,0,1,1.89-10c.26-1.21,1.3-2.49,1.07-3.54-2.23-10.28-.49-20.62-.35-30.9.07-5.69,1-11.42.81-17.19a23.45,23.45,0,0,1,.69-6.06c1.68-7.13-.46-13.89-1.43-20.83-.62-4.43.76-9.11.43-13.62a110.61,110.61,0,0,0-2.7-18.41c-1.42-5.75.06-10,5.6-12.44a23.25,23.25,0,0,0,3.23-2.19c.74-.48,1.85-1.43,2.23-1.21a6.8,6.8,0,0,1,1.87,2.45,1.71,1.71,0,0,1,.06,1.08c-1.57,7.61,1.79,14.72,2.27,22.12a2.06,2.06,0,0,0,.48,1.31c4.22,3.59,2.55,8.07,1.42,12.09-1.4,5-.38,9.41,1.8,13.82a4.63,4.63,0,0,1,.66,2.3c-.72,6-1.91,11.9-2.23,17.88-.31,5.79.25,11.63.42,17.45a17.33,17.33,0,0,1,0,3.14c-.82,5-1.76,10.08-2.55,15.14a4.47,4.47,0,0,0,.36,3.08c3.5,4.53.52,8.82-.28,13.18-.48,2.65-2,5.59-1.3,7.88,2.05,6.76,1.41,13.73,2.47,20.55,1.12,7.25,1.29,14.63,2,21.95a38.78,38.78,0,0,0,1.11,6.43A15.53,15.53,0,0,1,179.5,407a2.1,2.1,0,0,0-.39,1c-.21,3.75-.63,7.51-.53,11.26.17,6.31.66,12.6,1.06,18.9.48,7.59.75,15.21,1.58,22.77s-.22,14.74-1.87,22.11c-1.39,6.2-1.1,12.76-1.91,19.11-.42,3.31-.81,6,1.83,9,1.18,1.32-.32,5-.62,7.65-.08.7-.58,1.75-.29,2,2,2,1,4.4,1.33,6.68.51,4.26,1.64,8.45,2.13,12.72a77.54,77.54,0,0,1,0,8.89c0,1.56-.47,3.4.18,4.62,1.34,2.5,2.34,4.53.78,7.48-.65,1.23.4,3.52,1,5.21,1,2.72.7,5.56,1.07,8.21,1,7.2-2.92,14.51,1,21.65,1,1.75-.56,4.87-1,7.36-.16,1.05-.9,2.46-.48,3.07,2.71,3.88.88,8.06,1.06,12.08a14,14,0,0,1-.89,3.8c-.22.93-.92,2.12-.58,2.74,3,5.49.88,11.14.76,16.73-.1,4.08-1.12,8.54.16,12.17,2.24,6.37,1.18,13.63,5.39,19.36a4.91,4.91,0,0,0,2.49,2.06c4.2.81,8.46,1.36,12.71,2a16.09,16.09,0,0,0,3.59.22c9.58-.89,19.16-1.77,28.71-2.88,1.91-.22,3.7-1.49,5.57-2.2.79-.3,1.84-.83,2.44-.55,6.33,3,11.83-2.58,17.94-1.65a23.78,23.78,0,0,0,5.33.21c5.64-.45,10.82,1.1,16.23,2.46,4.07,1,8.89-1.07,13.4-1.64a93.94,93.94,0,0,1,12.48-1.2c2.88,0,5.74,1.66,8.62,1.7,9.51.15,19,1,28.42-2,3-1,6.74.48,10,0a34.93,34.93,0,0,0,10.08-3.28c4.66-2.31,12.4-.16,14.48,4.49a3.09,3.09,0,0,1,.28,1c.46,4.72-5.48,12.21-10.23,12.89-.48.06-1.1.26-1.44.05-5-3-9.66-.74-14.53.43-1.89.45-4.18-1.06-6.25-1a88,88,0,0,0-10.44,1.37c-3.78.64-7.53,2-11.3,2-4.18,0-8.51-2.09-12.52-1.52-7.45,1.07-14.87-1.09-22.44,1.16-4.28,1.27-9.57-1-14.42-1.54a82.16,82.16,0,0,0-8.29-.65c-1.84,0-3.71.58-5.54.49-7.64-.41-15,1.68-22.45,2.6-5.27.64-10.53,1.36-15.81,2-4.81.54-9.64.94-14.45,1.47-11.54,1.26-22.66.68-32.68-6.28-1.69-1.17-4.28-1.07-6.47-1.47-1.83-.33-3.47-.52-4.67-2.45C167.72,679.43,167.5,678,170.63,677.74Z" style="fill: #4c4c4c"/>
      <path d="M672.19,354.73c-2,1.86-.41,4.29.79,7.28.94,2.34.18,5.41,0,8.15-.17,3.66.15,7.48-.83,10.92-1.32,4.56,1.09,8.09,1.88,12.08.39,1.95-1.14,4,.34,6.13a19.67,19.67,0,0,1,1.72,4c-1,1.46-2.6,3.06-3.45,5a13.53,13.53,0,0,1-8.61,7.16c-2.44.75-7.47-.93-8.47-2.95-1.29-2.59-5.08-6.22-1.12-9.94.39-.36,0-1.42.22-2.1.8-2.69-1.8-6,1.52-8.24-2.1-5.23,2.48-11-1.37-16.12a1.81,1.81,0,0,1-.17-1.66c3.18-4.17.48-9.47,2.46-13.61,1.67-3.46.14-6.54,0-9.63-.09-2-3-4.14-4.94-5.82-.45-.39-2.23.83-3.44,1.21a3.75,3.75,0,0,1-2,.22,79.81,79.81,0,0,0-23.28-2.57c-2.31.07-4.78.53-6.92-.08-4.05-1.16-7.12,2-10.9,1.77s-7.63-.19-11.44-.23c-.73,0-1.45.2-2.18.26-1.72.16-3.44.28-5.88.48A14.78,14.78,0,0,1,586,349c-.35,1.7-1.06,3.34-1.33,5.06-.4,2.51-.59,5.06-.79,7.61a88.3,88.3,0,0,0,.8,18c.84,6.64.49,13.43.56,20.16a5.67,5.67,0,0,1-.9,2.7c-1.61,2.78-1.8,5.45,0,8.26a4.71,4.71,0,0,1,.85,3.07c-.46,2.14.23,5.45-3.4,5.38-7.09-.14-7.28-.76-7.61-5.78-.39-6-1.59-11.9-2.43-17.85-.38-2.7-.72-5.4-1.09-8.1-.4-3-.89-5.95-1.17-8.94a37,37,0,0,1,.05-5.05c.08-2,.27-4,.32-6.07,0-.54-.59-1.52-.48-1.58,3.77-2.24,1-5,.85-7.67-.21-2.85.31-5.75.42-8.64.28-7.07.56-14.14.72-21.21a45.06,45.06,0,0,0-.53-5,11.67,11.67,0,0,1-.06-2.89c1.16-7.22,2.11-14.49,3.68-21.62.87-4,2.93-7.69,4.2-11.61,1.62-5,2.85-10.11,4.5-15.09.95-2.88,2.75-5.5,3.54-8.41a93.35,93.35,0,0,0,2.7-13.65c.55-4.74,4.66-6.15,7.35-8.88,2-2,4.17-3.85,6.3-5.72.44-.39,1.06-.57,1.52-.94,1.32-1.06,3.54-2,3.72-3.28,1-6.66,6.16-7.51,11.12-8.72,4.11-1,8.35-2.74,12.39-2.41,3.84.31,8.52-1.31,11.76,2.94.81,1.07,3.47.59,5.17,1.14,3.83,1.26,7.6,2.72,11.46,4.12.66,1.15,1.4,2.59,2.3,3.92a6.56,6.56,0,0,1,1.43,4.25c0,2.37,1.43,5.08,3,7.06,2.92,3.73,1.53,7.87,1.87,11.84,0,.57-.49,1.51-.26,1.71,3.76,3.28.41,8.54,3.51,12.29.91,1.1-1.18,4.55-1.65,7s-1.19,5.2-.84,7.67c.24,1.66,2.14,3.09,3.42,4.78-2.23,2.37-1.67,5.72-.51,9.14.11.33.6.7.52.92-1.67,4.92.87,9.4,1.39,14.09a7.1,7.1,0,0,1-.41,2.08c-.68,3.31-2.13,6.67-1.9,9.9a124.41,124.41,0,0,1-.41,20.34C671.31,348.1,671.91,351,672.19,354.73Zm-21-105.38c.47-4.48-1.58-7-6.24-8.46-4.19-1.31-8.33-2.81-12.52-4.14a4.11,4.11,0,0,0-2.11.1c-3.88,1-7.48,1.72-10.27,5.61-2.3,3.2-6.71,4.85-10.06,7.35a38.87,38.87,0,0,0-3.46,3.66,9.36,9.36,0,0,1-1.79,1.12c-.2,1-.12,2.23-.68,3-3.08,4.5-5.25,9.21-5,14.87.08,1.73-.71,3.52-1.25,5.23-1,3.08-1.94,6.15-3.09,9.16-1.54,4-2.9,8.22-5,12s-4,7.18-3.27,11.59c.1.62-.49,1.33-.48,2,0,1.54-.13,3.26.47,4.6,1,2.19,2.63,3.67,1.26,6.75-1.81,4.06-.24,6.27,4,6.36a86.2,86.2,0,0,0,15.82-.89c4.56-.75,8.82-1.47,13.58-.75,6,.91,12.26.36,18.4.45a25.41,25.41,0,0,1,5.32.21c3.74.89,7,1,9.44-2.74.7-1.05,2.65-1.28,4.53-2.1-.34-3.86-.7-7.91-1.08-12-.23-2.52-1.2-5.23-.57-7.51,1.29-4.73-1.35-8.58-1.88-12.85-.46-3.7-1.88-7.71-.93-11,1.17-4,2.32-7.56,1.47-12-1-5.22-.71-10.68-1.06-16C654.63,251,654.35,248.86,651.2,249.35Z" style="fill: #4c4c4c"/>
      <path d="M615.81,574.18c.6,2.77,1.18,4.76,4.89,4.62,2-.07,4.21,2.07,6.09,3.52a100,100,0,0,1,9.49,8,116.21,116.21,0,0,1,8.25,9.6c2.52,3.13,4.87,6.39,7.28,9.61a2.55,2.55,0,0,1,.6,1.25c.14,5.69.2,11.38.33,17.07a11.77,11.77,0,0,0,.47,2.08c1,4.82.62,9.63.63,14.49,0,4.55-1.23,7.17-4,10.42-4.13,4.83-7.34,10.46-10.77,15.86-1,1.57-1.23,3.61-2.17,5.24a4,4,0,0,1-2.64,1.93c-3.94.2-7.91-.13-11.84.12a29,29,0,0,0-8.24,1.55c-3.57,1.33-6.67.64-10-.78-1.31-.56-3-.19-4.47-.4a36.45,36.45,0,0,1-4.24-.93c-.89-.24-1.76-.93-2.62-.89-2.52.12-4.43-.3-6.33-2.45-1.51-1.72-4.45-2.09-6.34-3.58a21.58,21.58,0,0,1-4.19-5.16,80.09,80.09,0,0,1-4.73-8,25.74,25.74,0,0,1-2.65-7c-.58-3.41-1.41-7.2-.5-10.35,1.38-4.78,7.78-6.75,12.59-4.85,2.85,1.12,5.39,1.86,4.72,6.21-.52,3.35.83,7,1,10.45.18,3,2.15,4.28,4.36,5.67a42,42,0,0,1,4.82,4.06l-.51,1,4.78-.51c1.13,4.68,6.65,4.91,8.59,4.13,3.33-1.34,6.55,0,9.47-1.26a30.1,30.1,0,0,0,10.77-7.49c2.09-2.3,5.77-3.49,7-6.88,1.35-3.65,3.11-7.35,3.41-11.13.77-9.62-.15-19.18-6.23-27.19-3-3.89-6.32-8-10.47-10.27-3-1.66-4.94-4.26-7.7-6a11.85,11.85,0,0,0-1.9-1.07c-4.85-1.78-9.6-4.09-14.61-5.11s-7.62-3.92-10.1-7.83c-1.38-2.17-3.86-3.62-5.48-5.68-2.33-3-3.85-6.72-6.55-9.25-5.11-4.77-3.29-11.75-6.26-17.1-.35-.63,0-1.67.08-2.5.16-1.34.92-2.85.52-4-1.88-5.26-1-10,1.6-14.78.59-1.09,0-2.82-.05-4.26l-.39-13.54c-.14-5.2,2.9-10.16,1.2-15.49a2.31,2.31,0,0,1,.14-1.78c3.72-5,2.16-11,3.26-16.54.82-4.08,2.69-7.32,4.69-10.71a33,33,0,0,0,1.74-4.5c4.53-2.58,5.78-4,6.06-7.16l4.21-1.26c1.92-.58,3.85-1.13,5.76-1.75.79-.26,1.8-.43,2.25-1,2.58-3.3,6.14-2.45,9.62-3,7.18-1.2,12.78,2.93,19.14,4.29.65.14,1,1.67,1.59,2.71,2.55-.85,4.43-.51,4.55,2.85,0,.43,1.29.87,2,1.22,1,.49,2.61.61,3.06,1.4,3.28,5.7,6.26,11.58,9.48,17.31,1.51,2.68,3.86,5,4.91,7.8a66.28,66.28,0,0,1,3,12.48,21.38,21.38,0,0,0,2,7.36c1.57,2.95,1.34,7.12,1.08,10.71s-1.9,7.15-2.24,10.78c-.27,2.82-.82,5.06-3.07,6.94-1.35,1.14-2.18,2.9-3.41,4.22-.56.61-1.68,1.34-2.28,1.15a3.41,3.41,0,0,1-2.15-2c-.42-2.59-.43-5.24-.59-7.87,0-.12.11-.25.07-.35-2.49-8,.17-16.43-2-24.31-1.37-4.88-4.16-9.37-6.26-14.05-.48-1.06-.56-2.33-1.16-3.29-3.27-5.28-5.73-11.31-11.06-14.87-6.18-4.13-12.72-6.82-20.69-4.45a36.67,36.67,0,0,0-12.89,6.83c-.37.3-1,.82-.91,1.06,1.45,4.68-4.23,6.35-4.34,10.41-.06,2.25-.62,4.48-.89,6.72s.29,4.65-.73,6.2c-2.54,3.89-1.41,7.55,0,11.06,1.83,4.48.6,8.76.34,13.19-.25,4.17.34,8.39.62,13.79-1.6,1.48-.93,4.39,0,7.74.78,2.7.1,5.8.37,8.7a6,6,0,0,0,1.6,3.56c2.89,2.69,6,5.12,9,7.68.58.51,1.46,1.16,1.47,1.77.09,3.74,3.44,4.83,5.69,6C608.83,573.74,612.36,573.61,615.81,574.18Z" style="fill: #4c4c4c"/>
    </g>
    <text transform="translate(184.64 798.92)" style="font-size: 45px;fill: #4c4c4c;font-family: Quick;letter-spacing: 0.4000108506944444em">L<tspan x="47.79" y="0" style="letter-spacing: 0.45em">U</tspan><tspan x="100.84" y="0" style="letter-spacing: 0.4199978298611111em">C</tspan><tspan x="156.96" y="0" style="letter-spacing: 0.4000217013888889em">A</tspan><tspan x="210.42" y="0" style="letter-spacing: 0.45em">S </tspan><tspan x="304.43" y="0">B</tspan><tspan x="353.52" y="0" style="letter-spacing: 0.4199978298611111em">I</tspan><tspan x="382.99" y="0" style="letter-spacing: 0.45em">GE</tspan><tspan x="488.7" y="0" style="letter-spacing: 0.36500651041666665em">L</tspan><tspan x="534.91" y="0" style="letter-spacing: 0.45001085069444446em">OW</tspan></text>
  </g>
</svg>
