<svg xmlns="http://www.w3.org/2000/svg" viewBox="0 0 1000 1000">
  <title>Lucas Logo</title>
  <g id="Layer_1" data-name="Layer 1">
    <text transform="translate(184.64 798.92)" style="font-size: 45px;fill: #4c4c4c;font-family: Quick;letter-spacing: 0.4000108506944444em">L<tspan x="47.79" y="0" style="letter-spacing: 0.45em">U</tspan><tspan x="100.84" y="0" style="letter-spacing: 0.4199978298611111em">C</tspan><tspan x="156.96" y="0" style="letter-spacing: 0.4000217013888889em">A</tspan><tspan x="210.42" y="0" style="letter-spacing: 0.45em">S </tspan><tspan x="304.43" y="0">B</tspan><tspan x="353.52" y="0" style="letter-spacing: 0.4199978298611111em">I</tspan><tspan x="382.99" y="0" style="letter-spacing: 0.45em">GE</tspan><tspan x="488.7" y="0" style="letter-spacing: 0.36500651041666665em">L</tspan><tspan x="534.91" y="0" style="letter-spacing: 0.45001085069444446em">OW</tspan></text>
    <g>
      <path d="M669.11,668a26,26,0,0,1-4.82.65c-4.19-.22-7.95,2.12-12.39,1.36-3.74-.64-8-1.06-11.16,3-1,1.24-4.17,1.4-6.15,1-3.43-.65-6.66-2.31-10.07-3.1-1-.23-2.28,1.06-2.76,1.31a33.66,33.66,0,0,0-5.29-1.54c-3.6-.43-7.19-.6-8.72-4.8-.17-.47-1.31-1.09-1.6-.93-2.86,1.6-4.72-1.35-7-1.45-4-.18-6-3.33-9.11-4.77-5.4-2.51-8.08-8.18-5-11.79,3.89-4.54,3.73-9.74,4.36-15,.07-.6,0-1.4.41-1.73,2.53-2.26,1.63-5.19,1.93-8,.42-3.85,1.6-7.62,2.45-11.43a10.75,10.75,0,0,0,.51-2.39c-.07-7.41-.33-14.82-.25-22.23,0-3.32,1-6.62,1.08-9.94.06-3.1-.62-6.21-.84-9.33a37,37,0,0,1,.2-3.92c.13-4,.25-8,.31-12,.11-6.75-.07-13.51.32-20.24.37-6.44,1-12.77,0-19.27-.82-5.25.15-10.78-.53-16.07a15.77,15.77,0,0,1,1.62-8.82c.64-1.44.33-3.46,0-5.13-1.17-6.1,2.67-11.18,3.25-16.84s.14-11.57.18-17.36c0-1.29.34-2.6.22-3.88-.25-2.83-.77-5.64-1-8.47-.1-1.13-.23-2.78.41-3.35,4.18-3.7,3.49-8.71,2.35-12.81-1.07-3.86-.18-7.11.24-10.62.35-2.85,1.31-5.71,1.16-8.52a44.53,44.53,0,0,1,1.8-14.26c.28-1-.37-2.3-.38-3.46-.05-3.35.06-6.7,0-10,0-1.11-.55-2.2-.64-3.32-.32-3.88-.8-7.78-.73-11.66.06-3.36,1-6.71,1.16-10.08.23-5.76,1.24-11.81-.15-17.21-1.3-5.06,1-9.74-.08-14.12-1.22-5.15,1.75-9.39,1.17-14.16-.42-3.36-.68-6.74-.81-10.13a53.43,53.43,0,0,1,.24-8.86c.26-2,2.07-3.92,1.86-5.73-.66-5.81-2-11.55-3-17.33-.34-2-1-4.34-.35-6.14,2.35-7-.51-13.95.51-20.87.14-1-.37-2.28.12-2.87,3.55-4.32.21-7.16-1.91-10.37a6.62,6.62,0,0,1-.59-3.09,77.13,77.13,0,0,1-.29-9,18.83,18.83,0,0,1,1.57-6c.94-2.26,1.9-4.74,3.57-6.41a96.52,96.52,0,0,1,10-8.23c.53-.41,1.63-.1,2.46-.06.57,0,1.5.42,1.64.21,1.8-2.62,4.91-1.63,7.18-2.71,3.7-1.75,7.23-1.48,11.1-.81,3.45.6,7.07.14,10.62.21,2,0,3.9.22,6.29.36.19.43,1.09,1.46.87,2.1-1.51,4.49,2.21,5.57,4.58,7.7,2.65,2.36,5,5.06,7.45,7.62.93,1,1.85,1.93,2.73,2.93,2.05,2.35,5.1,3.66,5.59,7.56.27,2.18,2.39,4.65,4.36,6,3,2,3.83,5,5.08,7.76a84.36,84.36,0,0,1,4.24,11.36,11.18,11.18,0,0,1-.32,6c-1.49,4.76.91,8.92,1.59,13.34a44.8,44.8,0,0,1,.66,5.39c.1,3.34,0,6.68,0,10,0,.83,0,2-.44,2.42-3.22,2.84-1.14,5.55-.19,8.46,1.81,5.58,3.14,10.79,1.16,17.2-1.7,5.45.32,12,.52,18.1.13,4.11,0,8.22-.06,12.33a11.87,11.87,0,0,0,0,2.46c1.09,5.39,2.25,10.76,3.37,16.14a1.84,1.84,0,0,1,0,1.09c-3.08,6.13-.92,12,.68,18,.34,1.24-.51,2.75-.49,4.13,0,2.27.44,4.53.47,6.8.09,6.05-.33,12.15.21,18.17.6,6.62-3.12,11.78-4.52,17.56s-7,10.17-6,16.76c.07.51-1.54,1.5-2.51,1.92-3.3,1.44-3.92,5.08-6.23,7.28-1.67,1.59-3.58,2.93-5.27,4.5a36,36,0,0,0-2.93,3.35c-.46.55-.77,1.58-1.28,1.67-5.43,1-7.51,5.7-10.61,9.3a5.1,5.1,0,0,1-2.29.93c-2.3.69-5.12.21-6.26,3.34-.23.63-2,.6-2.93,1.09a12.12,12.12,0,0,0-2,1.66,17.36,17.36,0,0,0,1.78,1.94c2.44,2,5.28,2.1,8.31,2.47,2.34.28,4.34,2.9,6.6,4.32a37.52,37.52,0,0,0,8,3.94c1.56,1.49,2,3.67,5.27,4.25,2.45.43,4.47,3.74,6.54,5.91,1.56,1.64,3.75,3.34,4.14,5.31.93,4.67,5.15,7.2,6.53,11.52.58,1.8,3.08,3,3.7,4.77,1,2.92,2.85,5.89,1.18,9.27a3,3,0,0,0,0,2.5c2.39,3.63,2.15,7.45,1.8,11.58-.24,2.83,1.59,5.8,1.64,8.72.07,3.49-.78,7-1.21,10.49a7,7,0,0,0,0,1.45c.43,4.85,2.37,10.2,1,14.45-2.14,6.5,2.59,11.28,2.14,17-.19,2.4-.84,4.77-1.12,7.16s-1,4.81-.35,6.89c1.09,3.69,1.5,6.83.06,10.72-1.21,3.28-.48,7.33-.34,11A22.71,22.71,0,0,1,699,631C697,636,692,639.26,691.49,645c-.13,1.34-2.23,2.64-3.62,3.69-1.9,1.45-4.07,2.53-6,4-.78.61-1.68,1.89-1.55,2.7,1.08,6.61-3.41,9.06-8.15,11.44-1.06.53-2,1.24-3,1.87ZM614.82,240c.69,1.95,1.28,3.46,1.76,5,.42,1.35.31,3.11,1.15,4,3,3.3,2.27,6.8,1.47,10.58a12.29,12.29,0,0,0,.36,5.54c1.58,6,3.06,12,2,18.16-1.9,11.27-5.88,22.27-3.68,34,1,5.27,1.59,10.61,2.19,15.93a12.5,12.5,0,0,1-.68,4.13c-.67,2.76-2.42,5.67-2,8.21,1.55,8.68,1,17.3.66,26-.1,2.2.71,4.44,1.07,6.66,0,.32,0,.87-.22,1-2.65,1.71-1.09,4.06-1,6.18.23,4.37.56,8.73.67,13.1a31.28,31.28,0,0,1-.57,5.86c-1,5.86-2.31,11.68-3,17.57-.63,5.69-.38,11.47-.9,17.18-.32,3.53,1.83,7.17-.62,10.6a9.61,9.61,0,0,0-1.59,3.56,25.77,25.77,0,0,0-.15,4.49c1.11,0,2.23,0,3.34,0s2.54-.23,3.58.21c4.72,2,7,1.9,10.06-1.88,2.19-2.7,4.38-3.58,6.57-2.5,1.88-.82,3.06-1.82,4.1-1.69,2.86.34,4.17-1.25,5.45-3.32,1-1.62,2.39-4.51,3.34-4.41,4.5.51,5-4.58,8.5-5.37,1.54-.35,3.59-1.48,4.11-2.78,1.54-3.82,3.7-6.48,8-7.07a1.33,1.33,0,0,0,.81-.67c1.34-2.76,2.55-5.58,4-8.29,1.72-3.25,3.61-6.41,5.43-9.62a64.44,64.44,0,0,0,2.6-6.56,90.55,90.55,0,0,0,2.85-8.72c1.3-5.55-2.66-11.16.05-16.76a1.16,1.16,0,0,0-.08-.72c-1.21-4-2.73-7.89-3.55-11.94-.58-2.87-.93-6.14-.14-8.86,1.32-4.55,1.18-8.49-1.53-12.42a5.17,5.17,0,0,1-.63-3.34c.32-2.23,1.64-4.47,1.41-6.58-.66-6.19-1.91-12.22-1.45-18.6.57-8.18,1.23-16.55-2.51-24.39a4.56,4.56,0,0,1-.23-2.85c.7-2.77,1.53-5.51,2.45-8.21,1.47-4.29,1.73-8.38-1.28-12.21a4.62,4.62,0,0,1-.41-2.4c-.08-1.8.1-3.62-.13-5.4-.65-5-1.23-10-2.25-15-.7-3.39.35-7.87-3.74-9.6-3-1.29-2.77-3.64-2.39-5.56.75-3.75-1.43-6.23-3.61-8a65.89,65.89,0,0,1-12.89-13.59c-2.63-3.77-6.06-5.91-10.87-5.42-3,.29-6,.34-8.92.5-1.83.73-1.69,4.68-5.4,3.41-3.5-1.2-5.33,1-6.34,3.57s-2.29,5.84-1.61,8.29c2,7.31-3.94,13.18-2.93,20.15C615.59,239.58,614.79,240,614.82,240Zm-9.93,407.18a31.09,31.09,0,0,0,3.13,3.54,3.58,3.58,0,0,0,2.59.74c6.09-1.13,11.44.91,16.86,3.33,2.1,1,5.59,2,6.89,1,3.65-2.86,7.94-1,11.52-2.64a15.54,15.54,0,0,1,9.82-.83c1.48.29,3.31-1.12,5-1.78.54-.21,1.05-.52,1.58-.74,4-1.69,8.29-3.44,10.26-7.51a27.47,27.47,0,0,1,7-9.5c4.2-3.62,5.85-9.45,6.37-15.12a103.49,103.49,0,0,0,.13-12c-.22-9.86-.53-19.72-.8-29.59,0-.71,0-1.42,0-2.14,0-2.67.07-5.34,0-8-.15-3.77-1.06-7.62-.53-11.28,1-7.13,2.21-14-1.16-20.94a23.79,23.79,0,0,1-1.79-8,27.61,27.61,0,0,0-5.26-14.28c-2.48-3.31-4.52-7-7.2-10.09a34.94,34.94,0,0,0-6.79-5.5c-1.42-1-3.27-1.29-4.73-2.21-4-2.54-7.38-6.31-12.63-6.61-2.63-.15-5.66.1-7.77-1.12a7.47,7.47,0,0,0-8.06,0c-6.8-2.34-12.93-4.19-19.56.95,0,5.51,0,11.78,0,18.05,0,1.83.34,3.66.33,5.49,0,4.19-.19,8.38-.26,12.57,0,2.79.63,5.79-.17,8.33-2.24,7.21.39,14.38-.38,21.53a2.28,2.28,0,0,0,.47,1.35c2.59,4,1.77,8.07.74,12.36-1.2,5-3.16,10.36-2.39,15.18.92,5.72.16,11.21.31,16.79,0,1.7-.9,3.41-1.09,5.14-.39,3.7-.62,7.42-.84,11.14-.12,2.1,0,4.22-.13,6.33-.05,1.17-.35,2.34-.38,3.51C605.73,632.22,608.26,640,604.89,647.17Z" style="fill: #4c4c4c"/>
      <path d="M311.39,661c-.83-3.08-2.76-5.91.12-8.82a2.37,2.37,0,0,0-.07-2.27c-2.3-1.64-1-3.41-.66-5.35a97.51,97.51,0,0,0,.75-10.41,76.59,76.59,0,0,0,.06-8.57c-.13-1.88-1.13-3.7-1.23-5.58-.17-3.06-.53-6.33.34-9.16.92-3,2.15-5.57.56-8.68a4.69,4.69,0,0,1-.12-3.53c1.91-4.5.11-8.64-.63-13a19.52,19.52,0,0,1,.67-9.85,12.38,12.38,0,0,0-.09-10.18c-1-2.3-.43-5.23-.63-7.87-.16-2.11.24-4.58-.72-6.25-3.11-5.42-1.59-11.14-1.75-16.74-.11-3.66.26-7.34.42-11,0-.35.28-.83.13-1-4.56-5.63-2-12.06-2.11-18.19a6.17,6.17,0,0,0-.6-2.66c-2.26-4.23-1.22-8.5-1.13-13,.13-7.11,3.65-14.1.75-21.35-1-2.41-1.26-5.1,1.6-7.11a3.94,3.94,0,0,0,.83-3.67c-2.11-5,.37-10-.27-15s-1.39-9.86-2.07-14.79a16.63,16.63,0,0,1-.18-2.73c.13-4.78.26-9.57.49-14.35.1-2,.68-3.95.6-5.91-.08-2.23-.86-4.43-.95-6.67s.4-4.23.52-6.35c.16-2.87.25-5.75.28-8.62,0-4,.16-8-.11-12-.15-2.18-1.09-4.31-1.53-6.49a8.66,8.66,0,0,1,0-3.17c1.31-7.08,1.81-14.05-2.14-20.58-.28-.46-.42-1.47-.16-1.71,2.57-2.31.07-4.71.28-7a83.16,83.16,0,0,1,1.88-10c.26-1.21,1.3-2.49,1.08-3.54-2.23-10.28-.5-20.62-.36-30.9.08-5.69,1-11.42.82-17.19a23,23,0,0,1,.68-6.06c1.68-7.13-.46-13.89-1.43-20.83-.62-4.43.76-9.11.43-13.62a109.58,109.58,0,0,0-2.7-18.41c-1.42-5.75.06-10,5.6-12.44a25.15,25.15,0,0,0,3.23-2.19c.74-.48,1.86-1.44,2.24-1.21a6.89,6.89,0,0,1,1.86,2.45,1.64,1.64,0,0,1,.06,1.08c-1.57,7.61,1.79,14.72,2.28,22.12a2,2,0,0,0,.48,1.3c4.21,3.6,2.54,8.08,1.42,12.1-1.4,5-.39,9.41,1.79,13.82a4.53,4.53,0,0,1,.66,2.3c-.72,6-1.91,11.9-2.22,17.88-.31,5.79.24,11.63.41,17.45a16.36,16.36,0,0,1,0,3.13c-.81,5.06-1.76,10.09-2.55,15.15a4.52,4.52,0,0,0,.36,3.08c3.5,4.53.52,8.81-.28,13.18-.48,2.64-2,5.59-1.3,7.88,2.05,6.76,1.41,13.73,2.47,20.55,1.12,7.24,1.29,14.63,2,21.95a38.78,38.78,0,0,0,1.11,6.43,15.53,15.53,0,0,1-2.34,13.33,2.1,2.1,0,0,0-.39,1c-.21,3.75-.63,7.51-.53,11.26.18,6.3.66,12.6,1.06,18.9.48,7.59.75,15.21,1.58,22.76s-.22,14.75-1.87,22.12c-1.39,6.2-1.1,12.75-1.91,19.11-.42,3.31-.81,6,1.84,9,1.17,1.33-.32,5-.63,7.66-.08.7-.58,1.75-.29,2,2,2,1.05,4.4,1.33,6.67.51,4.27,1.64,8.46,2.13,12.73a75.32,75.32,0,0,1,0,8.89c0,1.56-.47,3.39.19,4.62,1.33,2.49,2.34,4.53.77,7.48-.65,1.22.4,3.52,1,5.21,1,2.72.71,5.56,1.07,8.21,1,7.19-2.91,14.5,1,21.65,1,1.75-.56,4.87-1,7.36-.16,1.05-.9,2.46-.47,3.07,2.7,3.87.87,8.06,1.06,12.07a14.71,14.71,0,0,1-.89,3.81c-.23.92-.93,2.12-.59,2.74,3,5.49.89,11.14.76,16.73-.09,4.08-1.12,8.54.16,12.17,2.25,6.37,1.19,13.63,5.39,19.36a5,5,0,0,0,2.49,2.06c4.21.81,8.46,1.36,12.71,2a16.14,16.14,0,0,0,3.6.22c9.57-.9,19.15-1.77,28.7-2.88,1.92-.23,3.7-1.49,5.57-2.2.79-.3,1.85-.83,2.44-.55,6.34,3,11.83-2.58,17.94-1.65a23.78,23.78,0,0,0,5.33.21c5.64-.45,10.82,1.1,16.23,2.46,4.07,1,8.9-1.07,13.4-1.65A92.28,92.28,0,0,1,452,653.64c2.88,0,5.74,1.66,8.62,1.7,9.51.15,19,1,28.42-2,3-1,6.74.48,10,0A35.55,35.55,0,0,0,509.14,650c4.67-2.31,12.41-.16,14.48,4.49a3.09,3.09,0,0,1,.28,1c.46,4.73-5.48,12.21-10.23,12.89-.48.07-1.09.27-1.44.06-5-3-9.65-.74-14.53.43-1.89.45-4.17-1.06-6.25-1A86.24,86.24,0,0,0,481,669.3c-3.78.64-7.53,2-11.3,2-4.18,0-8.51-2.08-12.52-1.51-7.45,1.06-14.86-1.09-22.44,1.16-4.27,1.27-9.57-1-14.42-1.54-2.75-.33-5.52-.6-8.28-.66-1.85,0-3.71.59-5.55.49-7.64-.4-15,1.69-22.44,2.6-5.28.65-10.54,1.37-15.82,2-4.81.54-9.63.94-14.45,1.47-11.54,1.26-22.65.68-32.68-6.28-1.68-1.17-4.28-1.07-6.47-1.47-1.82-.33-3.47-.52-4.67-2.46C308.49,662.68,308.26,661.28,311.39,661Z" style="fill: #4c4c4c"/>
      <path d="M443.65,547.53c-.82-.19-2.24-.9-2.6-.55-5.56,5.48-12.39,1.88-18.56,2.65-3.81.47-7.18.48-9.87,4.27-3,4.21-17.64,5.52-22.45,2.78-3.27-1.86-6-11.79-4.14-15.11,3.7-6.64,10-9.46,17.56-9A33.68,33.68,0,0,0,416.05,531c11.12-3.75,22.47-7.36,32-14.43,4.87-3.61,8.5-8.85,12.87-13.17,3.55-3.52,7.93-6.33,10.93-10.22,4-5.17,7-11.14,10.48-16.67a56.44,56.44,0,0,1,5.15-6.87c4.09-4.68,5.93-10.18,7.29-16.19,1-4.21,3.93-7.93,5.6-12a95.05,95.05,0,0,0,3.08-10.28c1.53-5.45,3-10.91,4.51-16.37a7.92,7.92,0,0,0,.58-2.89c-1.26-10.44,3.72-19.47,6.36-29.05a160.14,160.14,0,0,0,4.26-19.59c1-6.83,1.05-13.8,1.75-20.68.63-6.22,1.72-12.4,2.26-18.62a7.6,7.6,0,0,0-1.65-5.07c-3-3.53-2.92-7.6-3.17-11.8-.36-6-.07-12.29-2.05-17.74-3-8.24-1.28-15.25,2-22.64a16.13,16.13,0,0,0,1.17-8.08c-.67-6-2.26-11.85-2.92-17.83-.55-5,0-10.2-.55-15.23a33.61,33.61,0,0,0-3.1-10.32c-.71-1.52-3-3.24-4.6-3.24-11.18,0-22.37.09-33.54.68-7.75.41-15.44,1.83-23.19,2.38-2.79.2-5.65-1.1-8.5-1.26-9.65-.51-19-.1-28.53,3.1-7.86,2.64-17,2.93-25.36,2.19-5.83-.52-11.63-4.08-16.85-7.27-1.71-1-2.64-5.55-1.9-7.79.65-2,4.11-4,6.43-4.16,5-.29,10.13.8,15.22,1,3.09.12,6.59.42,9.23-.81,8.05-3.76,16.67-4.69,25.2-5.3,9-.64,18.06.38,27.08.09,5.48-.18,10.89-1.72,16.37-2.23,6.36-.59,12.75-.77,19.13-1,1.65-.07,3.56-.27,4.93.42,8.34,4.2,16.67,2.41,25.07.42,4.12-1,8.3-1.77,12.47-2.56,3.28-.63,11,4.45,13.18,8.55s1.37,10.58-2,13c-5.57,3.92-4.47,9.33-4.31,14.78.11,3.69-.61,7.39-.68,11.09-.14,7.25-.46,14.52,0,21.74q1.68,29,4,57.86c.58,7,2.48,13.94,3.08,21,.31,3.64,0,7.9-1.61,11-3.59,6.83-5.49,13.61-3.91,21.27a10,10,0,0,1-.53,4.4c-1.27,4.55-2.58,9.1-4.09,13.57-.89,2.64-2.36,5.09-3.28,7.72a28.73,28.73,0,0,0-1.62,6.93c-.52,6.12,0,12.43-1.33,18.34a88.7,88.7,0,0,1-7.09,18.62c-2.38,4.9-5.41,9.41-4.72,15.21.59,5-2.71,8.3-5,12.1-1.24,2-1.58,4.63-2.84,6.66-4.26,6.9-8.38,13.94-13.25,20.4-4.66,6.2-10.31,11.64-15.29,17.61a71.75,71.75,0,0,0-6.2,9.25c-3,5.08-7.86,6.7-13.23,7.81-1.64.33-3.22,1.71-4.47,3q-5.55,5.56-10.76,11.48C444.65,544.21,444.39,545.78,443.65,547.53Z" style="fill: #4c4c4c"/>
    </g>
  </g>
</svg>
